<svg width="231" height="231" xmlns="http://www.w3.org/2000/svg" xmlns:xlink="http://www.w3.org/1999/xlink" overflow="hidden"><defs><clipPath id="clip0"><rect x="315" y="218" width="231" height="231"/></clipPath></defs><g clip-path="url(#clip0)" transform="translate(-315 -218)"><path d="M430.5 388.844C426.513 388.844 423.281 385.612 423.281 381.625L423.281 302.796 401.914 324.164C398.997 326.882 394.429 326.72 391.711 323.804 389.128 321.031 389.128 316.733 391.711 313.961L425.399 280.274C428.217 277.459 432.783 277.459 435.601 280.274L469.289 313.961C472.007 316.878 471.845 321.446 468.929 324.164 466.156 326.747 461.858 326.747 459.086 324.164L437.719 302.796 437.719 381.625C437.719 385.612 434.487 388.844 430.5 388.844Z" fill="#CC00FF"/><path d="M430.5 242.062C380 242.062 339.062 283.001 339.062 333.5 339.062 384 380 424.938 430.5 424.938 480.999 424.938 521.938 384 521.938 333.5 521.938 283.001 480.999 242.062 430.5 242.062ZM430.5 256.5C473.026 256.5 507.5 290.974 507.5 333.5 507.5 376.026 473.026 410.5 430.5 410.5 387.974 410.5 353.5 376.026 353.5 333.5 353.5 290.974 387.974 256.5 430.5 256.5Z" fill="#CC00FF"/></g></svg>